<svg width="512" height="512" viewBox="0 0 512 512" fill="none" xmlns="http://www.w3.org/2000/svg">
  <rect width="512" height="512" rx="112" fill="#05070B"/>
  <rect x="22" y="22" width="468" height="468" rx="94" stroke="#FF1E2D" stroke-width="28"/>
  <rect x="72" y="72" width="368" height="368" rx="74" fill="#10131A" stroke="rgba(255,255,255,0.08)" stroke-width="10"/>
  <path d="M160 362V146H292C358 146 401 184 401 244C401 289 377 322 338 339L400 372H321L270 346H230V362H160Z" fill="white"/>
  <path d="M230 291H282C312 291 331 273 331 248C331 223 312 206 282 206H230V291Z" fill="#10131A"/>
  <path d="M146 391H342" stroke="#FF1E2D" stroke-width="28" stroke-linecap="round"/>
  <circle cx="366" cy="156" r="26" fill="#FF1E2D"/>
  <circle cx="320" cy="127" r="14" fill="#FF666F"/>
</svg>
